<?xml version="1.0" encoding="utf-8"?>
<!-- Generator: Adobe Illustrator 25.4.1, SVG Export Plug-In . SVG Version: 6.00 Build 0)  -->
<svg version="1.1" id="Layer_1" xmlns="http://www.w3.org/2000/svg" xmlns:xlink="http://www.w3.org/1999/xlink" x="0px" y="0px"
	 viewBox="0 0 528.7 516.8" style="enable-background:new 0 0 528.7 516.8;" xml:space="preserve">
<style type="text/css">
	.st0{fill:#FFFFFF;}
	.st1{fill:#FAFBFC;}
	.st2{fill:none;stroke:#C8C8C8;stroke-width:0.2885;}
	.st3{fill:none;stroke:#C8C8C8;stroke-width:0.2885;stroke-dasharray:2.885,2.885;}
	.st4{fill:#231F20;}
	.st5{fill:none;stroke:#C8C8C8;stroke-width:0.2857;}
	.st6{fill:none;stroke:#C8C8C8;stroke-width:0.2857;stroke-dasharray:2.8568,2.8568;}
</style>
<g>
	<g>
		<rect x="8.5" y="29.3" class="st0" width="513.6" height="221.6"/>
		<rect x="59.8" y="30.8" class="st1" width="51.3" height="218.5"/>
		<rect x="162.3" y="30.8" class="st1" width="51.2" height="218.5"/>
		<rect x="264.7" y="30.8" class="st1" width="51.2" height="218.5"/>
		<rect x="367.1" y="30.8" class="st1" width="51.2" height="218.5"/>
		<path class="st1" d="M512.7,249.3h-43.2V30.8h43.2c4.3,0,7.8,3.5,7.8,7.8v203C520.5,245.8,517,249.3,512.7,249.3z"/>
	</g>
	<path class="st2" d="M12.2,249.3h506c1.2,0,2.2-1,2.2-2.2v-214c0-1.2-1-2.2-2.2-2.2h-506c-1.2,0-2.2,1-2.2,2.2v214
		C10,248.3,11,249.3,12.2,249.3z"/>
	<g>
		<g>
			<line class="st3" x1="9.8" y1="106" x2="521" y2="106"/>
			<line class="st3" x1="9.8" y1="180.1" x2="521" y2="180.1"/>
		</g>
		<g>
			<line class="st2" x1="59.8" y1="30.8" x2="59.8" y2="249.3"/>
			<line class="st2" x1="111.1" y1="30.8" x2="111.1" y2="249.3"/>
			<line class="st2" x1="162.3" y1="30.8" x2="162.3" y2="249.3"/>
			<line class="st2" x1="213.5" y1="30.8" x2="213.5" y2="249.3"/>
			<line class="st2" x1="264.7" y1="30.8" x2="264.7" y2="249.3"/>
			<line class="st2" x1="315.9" y1="30.8" x2="315.9" y2="249.3"/>
			<line class="st2" x1="367.1" y1="30.8" x2="367.1" y2="249.3"/>
			<line class="st2" x1="418.3" y1="30.8" x2="418.3" y2="249.3"/>
			<line class="st2" x1="469.5" y1="30.8" x2="469.5" y2="249.3"/>
		</g>
	</g>
</g>
<g>
	<path class="st4" d="M33.7,78.6c-3.8-0.1-6.1-2.7-6.1-6.4c0-4.3,4-8.2,8.2-8.2c3.8,0,6.4,2.5,6.4,6.3C42.1,74.6,38,78.7,33.7,78.6
		 M35.5,82.4c5.9,0,10.6-4,10.6-10.2c0-6.6-5.3-12.2-12.2-12.2c-5.8,0-10.8,4.3-10.8,10C23.2,76.5,28.9,82.4,35.5,82.4"/>
	<path class="st4" d="M81.7,61.2c0-3,2.4-5.9,6-5.9c2.8,0,4.8,1.7,4.8,4.4c0,2.2-1.4,4.3-6,8.2C83.4,65.8,81.7,63.9,81.7,61.2
		 M83.4,76.9v-0.3c9.9-8,13.1-11.1,13.1-14.9c0-5-4.3-10.3-10.3-10.3c-5.4,0-9.1,3.7-9.1,8.3c0,4.7,3.2,7.7,8,9.4
		c-2,1.7-4.6,3.7-7.6,6.1v1.1l8.8,5.9c4.3,2.8,3.3,5.3,1.3,8.6v0.6l5.1,0.4c2.3-4.4,1.8-7.3-3-10.5L83.4,76.9z"/>
	<path class="st4" d="M148.9,64.9c0-7.1-5.7-13.5-12.5-13.5c-4.2,0-7.5,1.5-10.5,4.1l3.3,3.7c2.5-2.1,5.6-3.7,8.9-3.7
		c4.2,0,7,3.1,7,6.8c0,5.5-4.7,10-12.4,10.9l-1-1.5c-1.1-1.7-2-2.3-3.3-2.3c-1.7,0-3,1.6-3,3.3c0,3,2.9,4.7,6.7,5.1l7.1,14.2h5.3
		v-0.6l-9.2-13.7C141.6,76.9,148.9,72,148.9,64.9"/>
	<path class="st4" d="M199.9,77.3c0-3.8-2.1-7.2-5.4-9.3c2.3-1.5,3.7-3.4,3.7-5.8c0-6.4-5.2-10.5-12.1-10.5c-3.1,0-6.4,1-9.2,2.5
		l3,4.3c2.7-1.4,5.5-2.5,8.7-2.5c3.6,0,6.1,1.4,6.1,4c0,3.8-6.6,6-14.4,7.2v0.6l2.5,3.8c3.8-0.5,7.2-1.4,9.9-2.7
		c1.9,2.2,2.8,4.3,2.8,6.9c0,4.4-3.8,6.4-8.5,6.4c-1.2,0-2.4-0.2-3.6-0.5l-1.7-2.6c-0.9-1.4-1.5-2.1-2.9-2.1c-1.5,0-2.7,1.2-2.7,2.9
		c0,2.8,2.8,4.6,6.2,5.3l4.8,9.7h4.9v-0.5l-6.7-8.8c1.4,0.4,2.9,0.5,4.1,0.5C195.2,86.1,199.9,83.1,199.9,77.3"/>
	<path class="st4" d="M300.1,77.9c1.6-1.1,2.6-2.5,2.6-4.3c0-3-2.8-5.3-5.3-5.3c-2.2,0-3.3,1.5-2.6,3.8l0.8,2.4
		c-1.7,0.7-3.4,1-5.9,1c-5.8,0-9.5-3.8-9.5-8.2c0-6.4,6.4-10.5,15.5-11.6l-2.2-4.4c-9.9,1.4-17.1,6.7-17.1,14.7
		c0,7.5,7,14.1,15.6,14.1c2,0,4-0.4,5.7-1l0.4,0.9c2.4,5.7-2.6,11.1-10.6,7.8v2.6c11.5,5.9,17.8-2.8,13.4-11.2L300.1,77.9z"/>
	<path class="st4" d="M352.9,85.3c1.5-1,2.5-2.3,2.5-4c0-2.4-2.2-5-4.5-5c-2,0-3,1.1-2.4,3.4l0.7,2.2c-2,1.1-4.4,1.6-7.1,1.6
		c-4.6,0-7.6-2.8-7.6-5.8c0-4.7,7-6.4,15-7.5l-1.9-4.1c-4,0.5-8,1.4-11.1,2.8c-1.7-1.8-2.8-3.9-2.8-6.1c0-5.3,6.4-7.1,14.8-7
		l-1.9-4.5c-10.1-0.2-16.9,2.9-17,9.2c-0.1,3.6,1.5,6.7,5,9.3c-2.4,1.5-3.8,3.4-3.8,5.9c0,6.4,6.3,11.6,13.4,11.6
		c2.2,0,4.4-0.4,6.4-1.1l2.3,8.5h4.9v-0.5L352.9,85.3z"/>
	<path class="st4" d="M394,66.4c0-3.7,2.4-6.2,6.1-6.2c3.9,0,6.4,4.5,6.4,9.9c0,1.7-0.1,3.3-0.4,4.8C398.7,73.7,394,71,394,66.4
		 M397.7,56.4c-4.8,0-8.2,3.4-8.2,8.3c0,6.6,5.7,11.8,16.2,12.2c-1.4,5.2-4.6,9.2-9.8,9.2c-10.9,0-15.4-15.4-15.6-35.4h-4.1
		c1.4,20.4,5.8,39.7,21,39.7c8.5,0,13.7-8.2,13.7-17.3C411,64.4,406.2,56.4,397.7,56.4"/>
	<path class="st4" d="M447.1,90.5c4.8,0,8.3-2.2,11.4-6.4l-3.2-3.3c-2.7,3.6-5.9,5.9-10.3,5.9c-4.6,0-7.2-3.3-7.2-7.3
		c0-2.2,0.8-4.7,2.5-7l13.5-17.7l-3.7-3.3l-14,18.9c-1.8,2.4-2.6,5-2.6,7.4C433.5,84.5,439.5,90.5,447.1,90.5"/>
	<path class="st4" d="M496.3,55.2c3.6,0,5.9,2.2,5.9,5.8c0,4.2-3,7.2-8.7,9l-0.9-0.9c-1.8-2-3.5-4.4-3.5-7.2
		C489,57.8,492.8,55.2,496.3,55.2 M494.8,71.6c5.9-0.1,11.6-2.8,11.6-8.7c0-6.3-5.4-11.5-11.8-11.5c-5.9,0-10.2,4.6-10.2,9.5
		c0,2.6,1.1,5.3,3.4,7.7l11.4,12.1c1.2,1.3,1.8,2.6,1.8,4c0,2-1.1,4-3.4,6v0.6l5.4,0.4c1.9-2.1,2.8-4,2.8-5.8c0-2-1-3.9-2.8-5.9
		L494.8,71.6z"/>
	<path class="st4" d="M84,139.8c-3.1,0-5.1-2.1-5.1-5.2c0-3.5,2.8-6.7,6.4-6.7c2.8,0,4.7,1.7,4.7,4.4v4.6
		C88.5,138.7,86.5,139.8,84,139.8 M83.9,124c-5.5,0-9.4,4-9.4,8.9c0,5.6,5.4,10.6,11,10.6c1.8,0,3.4-0.5,4.9-1.4l-0.3,19.2l3.8,2.4
		h0.6v-29.3C94.5,129.4,90,124,83.9,124"/>
	<path class="st4" d="M239.2,159.5c-2.5,0-4.7-1.6-4.7-4.4c0-2.1,0.8-3.8,2.5-6l3.2-4l1.8,2.2c1.7,2,2.4,4.5,2.4,6.4
		C244.4,157.4,242.3,159.5,239.2,159.5 M254.7,126.9l-3.6-3.3l-11.9,14.9l-10.9-13.9h-4.5v0.3l13.4,16.3l-4.6,5.7
		c-1.8,2.2-2.7,4.6-2.7,6.6c0,5,5,9.6,11.8,9.6c4.5,0,7.5-3,7.5-7.3c0-3.3-1.5-6.4-3.6-9.1l-3.3-4.1L254.7,126.9z"/>
	<path class="st4" d="M453.1,150.5c-3.2,0-7.6,1.4-10.8,1.4c-4.2,0-6.3-1.8-6.3-5.4c0-5.1,4.4-9.3,9.8-12.2h14.3v-0.6l-2.7-3.3
		h-30.8v0.6l2.7,3.3h4.4l4.4-0.2c-4.1,2.5-6.9,6.3-6.9,10.7c0,3,1.7,5.6,4.1,8c2.4,2.4,4.8,3.5,8.1,3.5c3.7,0,7.3-1.4,10.3-1.4
		c3.5,0,4.7,1.2,4.7,3.3c0,2-1.5,4.1-3.8,6l-0.1,0.6l5.1,0.4c1.7-1.9,2.5-3.6,2.5-5.5C462.2,155.4,458.4,150.5,453.1,150.5"/>
	<path class="st4" d="M502.5,154.5c-2.9,0-6.7,0.9-9.6,1.1c-3.5,0.2-6.3-1.1-6.3-4.7c0-3.3,2.7-6.4,7.5-7.6H509v-0.6l-2.7-3.3h-4.6
		c-3.8-2.6-5.4-5.6-5.4-8.2c0-3.3,2.5-4.8,5.6-4.8c2.2,0,4.8,0.8,6.9,2.3h0.3l-0.9-4c-2.3-1.5-5-2.3-7.6-2.3c-4.6,0-8.7,2.5-8.7,7.5
		c0,3.3,2.1,6.7,6,9.5h-21v0.6l2.7,3.3h3.7l2.5-0.1c-2.2,1.6-3.5,3.8-3.5,6.2c0,3.1,1.8,5.9,4.4,8c2.5,2,4.6,2.5,7.4,2.5
		c2.5,0,6.7-1.1,9.6-1.1c3.2,0,4.4,1.4,4.4,3.4c0,2-1.3,4-3.6,5.9l-0.1,0.6l5.1,0.4c1.7-1.9,2.5-3.6,2.5-5.5
		C512.2,159.5,508.5,154.5,502.5,154.5"/>
	<path class="st4" d="M489.2,222.6c0-3.7,3.4-5.3,7.6-5.3c2.7,0,5.4,0.4,7.9,1.2l-0.6-4.6c-2.7-1.1-5.9-1.5-8.9-1.5
		c-0.4,0-0.9,0-1.3,0.1c-2.5-2.5-4-4.6-4-7.2c0-3.5,2.8-5.1,6.8-5.1c2.5,0,4.8,0.5,6.8,1.2v-2.6c-2.7-1.8-6.3-2.8-9.5-2.8
		c-5.1,0-8.8,2.8-8.8,7.5c0,4,2.7,7,6.1,9.4c-3.9,1-6.9,3.5-6.9,7.6c0,9.3,12.4,15.5,24.4,17v-3.9
		C497.2,233.5,489.2,228.6,489.2,222.6"/>
	<path class="st4" d="M253.3,59.9c0-2.4-1.1-5.1-3.1-7.9h-2.1c2.4,5.6,1.3,9.3-2.4,11.9l-7.1,4.9c-5.2-2.7-7.9-5.4-7.9-8.1
		c0-2.1,1.5-4.1,4-5.7l-3.4-3.5c-3.3,1.9-5,4.5-5,7.9c0,4.9,4.2,8.2,10,11l-0.1,0.1c-3.3,2.2-6.8,5.4-6.8,9.4
		c0,5.1,4.6,10.7,11.4,10.7c5.4,0,9.5-3.3,9.5-9c0-4.5-2.5-7.4-6.9-10.1l5.6-3.9C252,65.3,253.3,62.6,253.3,59.9z M245.7,80.5
		c0,3.4-2.2,6-6,6c-3.1,0-5.7-2.1-5.7-5.1c0-2.7,1.8-4.7,5.6-7.4l1.8-1.3C245,75.6,245.7,77.9,245.7,80.5z"/>
	<path class="st4" d="M303,127l-3.8-2.4h-0.6c0.4,5.8,0.4,10.7,0.2,14.7c-3.3,3.7-6.5,5.3-9.9,5.3c-4.4,0-6.1-3.3-6.1-8
		c0-3,0.7-6.6,2-10.3L281,124h-0.6c-1.1,4-1.8,7.7-1.8,10.9c0,4.3,1.2,7.9,4.4,10.7c2.7,2.4,5.3,3,7.9,3c2.5,0,5-0.8,7.4-2.6
		c-1.2,8.2-4.1,11.4-7.9,12.4l-2.5-3.4c-0.9-1.2-1.5-2.1-2.9-2.1c-1.5,0-2.7,1.3-2.7,3c0,2.8,3.6,4.8,7.2,5.3l6.2,8.7h5.2v-0.5
		l-8.1-8.1C299.8,160.3,304.5,151.6,303,127z"/>
</g>
<g>
	<path d="M17.8,11.7h1.3l4.2,6.7l0-2.4v-4.3h1.3v9.1h-1.3l-4.2-6.7l0,2.1v4.7h-1.3V11.7z"/>
	<path d="M28,14.3v3.8c0,1.2,0.6,1.6,1.4,1.6c0.9,0,1.5-0.6,1.5-1.7v-3.6h1.4v6.5h-1.4V20c-0.4,0.6-1,0.9-1.9,0.9
		c-1.6,0-2.4-1-2.4-2.7v-4H28z"/>
	<path d="M34,14.3h1.4v0.8c0.4-0.6,1-0.9,1.9-0.9c1,0,1.7,0.4,2,1.2c0.4-0.7,1.1-1.2,2.2-1.2c1.6,0,2.3,1,2.3,2.7v4h-1.4V17
		c0-1.2-0.6-1.7-1.4-1.7c-0.9,0-1.5,0.6-1.5,1.7v3.7h-1.4V17c0-1.2-0.6-1.7-1.4-1.7c-0.9,0-1.5,0.6-1.5,1.7v3.7H34V14.3z"/>
	<path d="M51,17v1h-4.3c0,1.1,0.8,1.7,1.9,1.7c0.8,0,1.4-0.1,2.3-0.6v1.1c-0.8,0.4-1.4,0.6-2.5,0.6c-1.8,0-3.1-1.1-3.1-3v-0.8
		c0-1.9,1.2-3,2.8-3C49.8,14.1,51,15.1,51,17z M46.7,17h2.9v0c0-1.2-0.5-1.7-1.5-1.7C47.2,15.3,46.7,15.9,46.7,17z"/>
	<path d="M52.5,14.3h1.4v1c0.4-0.7,1.1-1.2,2-1.2v1.3c-0.1,0-0.2,0-0.3,0c-0.9,0-1.7,0.9-1.7,2.1v3.3h-1.4V14.3z"/>
	<path d="M60.6,20.8v-0.7c-0.4,0.6-1,0.9-1.9,0.9c-1.4,0-2.1-0.7-2.1-1.9c0-1.9,1.8-2,2.7-2h1.3v-0.1c0-0.8,0-1.6-1.6-1.6
		c-0.8,0-1.5,0.2-2.1,0.8v-1.3c0.6-0.4,1.3-0.7,2.4-0.7c2.5,0,2.7,1.4,2.7,2.6v4H60.6z M60.6,18h-1.3c-0.7,0-1.5,0-1.5,0.9
		c0,0.6,0.4,0.9,1.1,0.9c0.8,0,1.6-0.3,1.6-1.5V18z"/>
	<path d="M63.6,11.7H65v7.1c0,0.7,0.1,1,0.6,1c0.3,0,0.5,0,0.6-0.1v1.1c-0.2,0.1-0.5,0.1-0.9,0.1c-1.3,0-1.7-0.6-1.7-1.9V11.7z"/>
	<path d="M67.1,19.2c0.7,0.4,1.5,0.6,2.4,0.6c0.9,0,1.5-0.3,1.5-0.9c0-0.6-0.5-0.8-1.2-0.9L69,18c-1-0.1-2-0.5-2-1.9
		c0-1.3,1.3-2,2.6-2c0.9,0,1.8,0.2,2.4,0.5v1.3c-0.7-0.4-1.6-0.6-2.3-0.6c-0.9,0-1.4,0.3-1.4,0.9c0,0.6,0.6,0.7,1.2,0.8l0.8,0.1
		c1.1,0.1,2,0.6,2,1.9c0,1.5-1.5,2.1-2.8,2.1c-0.7,0-1.7-0.2-2.3-0.5V19.2z"/>
</g>
<g>
	<path d="M21.4,267.9H20l-3.1-9.2h1.6l2.3,7.4l2.4-7.4h1.5L21.4,267.9z"/>
	<path d="M24.8,264.1c0-2,1.3-3,3-3c1.7,0,3,1,3,3v0.8c0,2-1.3,3-3,3c-1.7,0-3-1-3-3V264.1z M26.2,265c0,1.2,0.6,1.8,1.6,1.8
		c0.9,0,1.6-0.6,1.6-1.8v-0.9c0-1.2-0.6-1.8-1.6-1.8c-1,0-1.6,0.6-1.6,1.8V265z"/>
	<path d="M32.8,261.3l1.3,5.1l1.6-5.1H37l1.6,5l1.3-5h1.4l-1.9,6.6h-1.4l-1.5-4.8l-1.6,4.8h-1.4l-2-6.6H32.8z"/>
	<path d="M47.6,264v1h-4.3c0,1.1,0.8,1.7,1.9,1.7c0.8,0,1.4-0.1,2.3-0.6v1.1c-0.8,0.4-1.4,0.6-2.5,0.6c-1.8,0-3.1-1.1-3.1-3v-0.8
		c0-1.9,1.2-3,2.8-3C46.4,261.1,47.6,262.1,47.6,264z M43.3,264h2.9v0c0-1.2-0.5-1.7-1.5-1.7C43.9,262.3,43.3,262.9,43.3,264z"/>
	<path d="M49.1,258.7h1.4v7.1c0,0.7,0.1,1,0.6,1c0.3,0,0.5,0,0.6-0.1v1.1c-0.2,0.1-0.5,0.1-0.9,0.1c-1.3,0-1.7-0.6-1.7-1.9V258.7z"
		/>
	<path d="M52.5,266.2c0.7,0.4,1.5,0.6,2.4,0.6c0.9,0,1.5-0.3,1.5-0.9c0-0.6-0.5-0.8-1.2-0.9l-0.7-0.1c-1-0.1-2-0.5-2-1.9
		c0-1.3,1.3-2,2.6-2c0.9,0,1.8,0.2,2.4,0.5v1.3c-0.7-0.4-1.6-0.6-2.3-0.6c-0.9,0-1.4,0.3-1.4,0.9c0,0.6,0.6,0.7,1.2,0.8l0.8,0.1
		c1.1,0.1,2,0.6,2,1.9c0,1.5-1.5,2.1-2.8,2.1c-0.7,0-1.7-0.2-2.3-0.5V266.2z"/>
	<path d="M65.6,267.8V267c-0.4,0.6-1,0.9-1.9,0.9c-1.4,0-2.1-0.7-2.1-1.9c0-1.9,1.8-2,2.7-2h1.3v-0.1c0-0.8,0-1.6-1.6-1.6
		c-0.8,0-1.5,0.2-2.1,0.8v-1.3c0.6-0.4,1.3-0.7,2.4-0.7c2.5,0,2.7,1.4,2.7,2.6v4H65.6z M65.6,265h-1.3c-0.7,0-1.5,0-1.5,0.9
		c0,0.6,0.4,0.9,1.1,0.9c0.8,0,1.6-0.3,1.6-1.5V265z"/>
	<path d="M68.7,261.3h1.4v0.8c0.4-0.6,1.1-1,2-1c1.6,0,2.3,1,2.3,2.7v4h-1.4V264c0-1.2-0.6-1.7-1.4-1.7c-0.9,0-1.6,0.5-1.6,1.7v3.7
		h-1.4V261.3z"/>
	<path d="M75.9,264.9v-0.8c0-1.8,0.9-3,2.6-3c0.9,0,1.5,0.4,1.9,1v-3.4h1.4v9.1h-1.4v-0.9c-0.4,0.6-1,1.1-1.9,1.1
		C76.8,267.9,75.9,266.8,75.9,264.9z M78.8,266.8c0.9,0,1.6-0.9,1.6-1.8v-1.2c-0.1-0.9-0.8-1.6-1.6-1.6c-0.9,0-1.5,0.6-1.5,1.8v1
		C77.3,266.2,77.8,266.8,78.8,266.8z"/>
	<path d="M91.2,261.6v1.3c-0.6-0.4-1.3-0.6-1.9-0.6c-1.1,0-1.7,0.6-1.7,1.8v0.9c0,1.2,0.6,1.8,1.7,1.8c0.6,0,1.2-0.1,1.9-0.6v1.2
		c-0.5,0.3-1.2,0.5-2,0.5c-1.8,0-3-1.1-3-3v-0.8c0-1.8,1-3,3.1-3C90,261.1,90.6,261.2,91.2,261.6z"/>
	<path d="M92.3,264.1c0-2,1.3-3,3-3c1.7,0,3,1,3,3v0.8c0,2-1.3,3-3,3c-1.7,0-3-1-3-3V264.1z M93.7,265c0,1.2,0.6,1.8,1.6,1.8
		c0.9,0,1.6-0.6,1.6-1.8v-0.9c0-1.2-0.6-1.8-1.6-1.8c-1,0-1.6,0.6-1.6,1.8V265z"/>
	<path d="M99.7,261.3h1.4v0.8c0.4-0.6,1.1-1,2-1c1.6,0,2.3,1,2.3,2.7v4h-1.4V264c0-1.2-0.6-1.7-1.4-1.7c-0.9,0-1.6,0.5-1.6,1.7v3.7
		h-1.4V261.3z"/>
	<path d="M107,266.2c0.7,0.4,1.5,0.6,2.4,0.6c0.9,0,1.5-0.3,1.5-0.9c0-0.6-0.5-0.8-1.2-0.9l-0.7-0.1c-1-0.1-2-0.5-2-1.9
		c0-1.3,1.3-2,2.6-2c0.9,0,1.8,0.2,2.4,0.5v1.3c-0.7-0.4-1.6-0.6-2.3-0.6c-0.9,0-1.4,0.3-1.4,0.9c0,0.6,0.6,0.7,1.2,0.8l0.8,0.1
		c1.1,0.1,2,0.6,2,1.9c0,1.5-1.5,2.1-2.8,2.1c-0.7,0-1.7-0.2-2.3-0.5V266.2z"/>
	<path d="M113.2,264.1c0-2,1.3-3,3-3c1.7,0,3,1,3,3v0.8c0,2-1.3,3-3,3c-1.7,0-3-1-3-3V264.1z M114.6,265c0,1.2,0.6,1.8,1.6,1.8
		c0.9,0,1.6-0.6,1.6-1.8v-0.9c0-1.2-0.6-1.8-1.6-1.8c-1,0-1.6,0.6-1.6,1.8V265z"/>
	<path d="M120.7,261.3h1.4v0.8c0.4-0.6,1.1-1,2-1c1.6,0,2.3,1,2.3,2.7v4H125V264c0-1.2-0.6-1.7-1.4-1.7c-0.9,0-1.6,0.5-1.6,1.7v3.7
		h-1.4V261.3z"/>
	<path d="M131.8,267.8V267c-0.4,0.6-1,0.9-1.9,0.9c-1.4,0-2.1-0.7-2.1-1.9c0-1.9,1.8-2,2.7-2h1.3v-0.1c0-0.8,0-1.6-1.6-1.6
		c-0.8,0-1.5,0.2-2.1,0.8v-1.3c0.6-0.4,1.3-0.7,2.4-0.7c2.5,0,2.7,1.4,2.7,2.6v4H131.8z M131.8,265h-1.3c-0.7,0-1.5,0-1.5,0.9
		c0,0.6,0.4,0.9,1.1,0.9c0.8,0,1.6-0.3,1.6-1.5V265z"/>
	<path d="M134.9,261.3h1.4v0.8c0.4-0.6,1.1-1,2-1c1.6,0,2.3,1,2.3,2.7v4h-1.4V264c0-1.2-0.6-1.7-1.4-1.7c-0.9,0-1.6,0.5-1.6,1.7v3.7
		h-1.4V261.3z"/>
	<path d="M142.7,262.4h-1.1v-1.1h1.1v-1.9h1.4v1.9h1.6v1.1h-1.6v3.1c0,0.9,0.2,1.2,1,1.2c0.2,0,0.6,0,0.8-0.1v1.2
		c-0.2,0.1-0.6,0.1-1,0.1c-1.5,0-2.1-0.9-2.1-2.2V262.4z"/>
	<path d="M146.9,266.2c0.7,0.4,1.5,0.6,2.4,0.6c0.9,0,1.5-0.3,1.5-0.9c0-0.6-0.5-0.8-1.2-0.9l-0.7-0.1c-1-0.1-2-0.5-2-1.9
		c0-1.3,1.3-2,2.6-2c0.9,0,1.8,0.2,2.4,0.5v1.3c-0.7-0.4-1.6-0.6-2.3-0.6c-0.9,0-1.4,0.3-1.4,0.9c0,0.6,0.6,0.7,1.2,0.8l0.8,0.1
		c1.1,0.1,2,0.6,2,1.9c0,1.5-1.5,2.1-2.8,2.1c-0.7,0-1.7-0.2-2.3-0.5V266.2z"/>
	<path d="M156.1,266.2c0.7,0.4,1.5,0.6,2.4,0.6c0.9,0,1.5-0.3,1.5-0.9c0-0.6-0.5-0.8-1.2-0.9l-0.7-0.1c-1-0.1-2-0.5-2-1.9
		c0-1.3,1.3-2,2.6-2c0.9,0,1.8,0.2,2.4,0.5v1.3c-0.7-0.4-1.6-0.6-2.3-0.6c-0.9,0-1.4,0.3-1.4,0.9c0,0.6,0.6,0.7,1.2,0.8l0.8,0.1
		c1.1,0.1,2,0.6,2,1.9c0,1.5-1.5,2.1-2.8,2.1c-0.7,0-1.7-0.2-2.3-0.5V266.2z"/>
	<path d="M162.6,258.6h1.4v1.5h-1.4V258.6z M162.6,261.3h1.4v6.5h-1.4V261.3z"/>
	<path d="M165.5,264.9v-0.8c0-1.8,0.9-3,2.6-3c0.9,0,1.5,0.4,1.9,1v-0.8h1.4v6.2c0,1.8-1.1,3.1-3.3,3.1c-0.9,0-1.6-0.2-2.2-0.4v-1.2
		c0.7,0.3,1.6,0.5,2.2,0.5c1.5,0,1.9-0.8,1.9-2v-0.6c-0.4,0.6-1,1.1-1.9,1.1C166.4,267.9,165.5,266.8,165.5,264.9z M168.4,266.7
		c0.9,0,1.6-0.9,1.6-1.8v-1.1c-0.1-0.9-0.8-1.6-1.6-1.6c-0.9,0-1.5,0.6-1.5,1.8v1C166.9,266.1,167.5,266.7,168.4,266.7z"/>
	<path d="M173.2,261.3h1.4v0.8c0.4-0.6,1.1-1,2-1c1.6,0,2.3,1,2.3,2.7v4h-1.4V264c0-1.2-0.6-1.7-1.4-1.7c-0.9,0-1.6,0.5-1.6,1.7v3.7
		h-1.4V261.3z"/>
	<path d="M180.5,266.2c0.7,0.4,1.5,0.6,2.4,0.6c0.9,0,1.5-0.3,1.5-0.9c0-0.6-0.5-0.8-1.2-0.9l-0.7-0.1c-1-0.1-2-0.5-2-1.9
		c0-1.3,1.3-2,2.6-2c0.9,0,1.8,0.2,2.4,0.5v1.3c-0.7-0.4-1.6-0.6-2.3-0.6c-0.9,0-1.4,0.3-1.4,0.9c0,0.6,0.6,0.7,1.2,0.8l0.8,0.1
		c1.1,0.1,2,0.6,2,1.9c0,1.5-1.5,2.1-2.8,2.1c-0.7,0-1.7-0.2-2.3-0.5V266.2z"/>
</g>
<rect x="228.4" y="286" class="st1" width="73" height="216.6"/>
<rect x="374.5" y="286" class="st1" width="73" height="216.6"/>
<rect x="82.4" y="286" class="st1" width="73" height="216.6"/>
<g>
	<path class="st4" d="M206,345.3c-3.9,2.2-7.9,2.2-12.6,1.1c-1.8-1.4-4-2.2-6.5-2.2c-2.4,0-4.6,0.7-7.5,2.5
		c-1.5-1.5-2.9-3.3-2.9-5.4c0-2.1,1.4-3.8,4.3-3.8h11.1c1.9,0,2.8-0.9,2.8-2.8v-7.9H206V345.3z M216.6,322.6h-52.9v0.6l2.9,3.5h23.6
		v5.3c0,0.9-0.3,1.1-1.1,1.1h-8.5c-6,0-8.7,2.8-8.7,6.4c0,3.5,2.8,7.5,8.4,11.4c0.6,0.4,1.6,0.4,2.3,0c2.9-1.9,4.5-2.4,6.6-2.4
		c2,0,4.4,1.4,4.4,4c0,4.3-4.2,6.4-9.2,6.4c-1.5,0-3-0.2-4.6-0.5l-2.8-3.6c-1.2-1.6-2-2.1-3.3-2.1c-1.5,0-2.9,1.3-2.9,3.3
		c0,3.2,3.6,5.3,7.8,5.8l6.7,10.5h5.5v-0.6l-8-9c1.3,0.3,2.7,0.5,4,0.5c5.6,0,10.7-3,10.7-8.4c0-2-0.5-3.8-1.3-5.3
		c3.8,1.5,7.3,2.1,10.2,1.2l-0.2,11l4,2.5h0.6v-37.6h8.8v-0.6L216.6,322.6z"/>
	<path class="st4" d="M169.9,435.4c0-2,1.2-3.5,3.2-3.5c1.3,0,2.3,0.8,2.3,2.3v6.1C172,440,169.9,437.8,169.9,435.4 M222.9,432.2
		v-0.6l-2.9-3.5h-36.6v0.6l2.9,3.5h7.5v15H180v-10.1c0-4.7-4.5-9.4-9.2-9.4c-3.4,0-5.7,2.5-5.7,5.9c0,4.6,4.1,8.2,9,8.2
		c0.4,0,0.8,0,1.3-0.1l0.1,5.5h-1.1c-2.3,0-3.6,1.1-3.6,3.3c0,3,3.9,6.9,6.6,6.9c1.6,0,2.6-0.9,2.6-2.5v-3.3h14l-0.2,15.7l4,2.5h0.6
		V450c2-3.4,5.4-5.8,9-5.8c4.1,0,6.9,2.8,6.9,6.1c0,5.7-6.1,8.3-12.4,6.8v2.5c2.3,1.5,4.7,2.2,7,2.2c5.2,0,9.4-3.8,9.4-9.9
		c0-6.2-5.9-12.1-12.6-12.1c-2.8,0-5.4,1.2-7.5,3v-0.1l0.2-10.6H222.9z"/>
	<path class="st4" d="M263.2,341.9c0,4.3-3.5,6.3-6.8,6.3c-2.8,0-5.4-1.5-5.4-4.4v-17.2h12.1V341.9z M288.6,322.6h-50.8v0.6l2.9,3.5
		h5.7v14.5c0,6.2,6.1,11.1,12.6,11.1c5.2,0,8.8-4.2,8.8-9.6v-16H278v35l4,2.5h0.6v-37.6h8.8v-0.6L288.6,322.6z"/>
	<path class="st4" d="M290.4,428.1h-53.2v0.6l2.9,3.5h9v15h-1.5c-1.6,0-3.2,0.8-3.2,2.8c0,2.1,1.5,3.3,4,5.6l15.3,14.2h5.7v-0.6
		L253.7,456v-23.8h10.7v18.1l3.9,2.9h0.6v-21h10.7v35l4,2.5h0.6v-37.6h8.8v-0.6L290.4,428.1z"/>
	<path class="st4" d="M360.8,322.6h-49.3v0.6l2.9,3.5h35.8v11.9c-1.5-1.9-3.7-3-6.6-3c-3.5,0-5.7,1.6-7.1,4.4
		c-1.8-2.7-4.2-4.7-8.1-4.7c-5.9,0-9.9,4.2-9.9,10.2c0,5.8,3.2,11.6,7.6,17.2h3.3c-3.7-5.4-6.2-10.1-6.2-15c0-5.2,2.7-7.7,7.2-7.7
		c2.3,0,3.9,0.7,5.4,1.8c-0.8,2.6-0.9,5.7-0.6,9.3l4.2,2.3h0.6c-0.6-8.1,0-13.7,5.8-13.7c1.8,0,3.2,0.5,4.5,1.6l-0.1,20.3l4,2.7h0.6
		v-37.6h8.8v-0.6L360.8,322.6z"/>
	<path class="st4" d="M364.7,431.6l-2.9-3.5h-49.3v0.6l2.9,3.5h30.9l0.1,9.3c-0.5-0.1-1-0.1-1.5-0.1c-3.5,0-5.9,1.8-7.4,4.5
		c-1.8-2.7-4.3-4.7-8.1-4.7c-5.9,0-9.9,4.6-9.9,10.3c0,6.4,4.1,12.6,10.3,17.4h3.2v-0.6c-5.3-4.4-8.8-9.3-8.8-14.4
		c0-4.9,2.5-7.9,7.2-7.9c2.2,0,3.9,0.7,5.3,1.8c-0.8,2.4-1.1,5.3-0.8,8.3l4,2.3h0.6c-0.6-8.4,1.7-12.6,6.4-12.6
		c3.6,0,5.4,3.4,5.4,7.6c0,4.4-3,9-8.2,12.7l4.4,3.1c5.4-4.4,8.3-9.4,8.3-14c0-4.5-2.5-9.2-6.1-11.8l0.1-11.1h13.8V431.6z"/>
	<path class="st4" d="M407.6,341.3c-4.6-1.5-8.5-3.4-8.5-7.6c0-4,3.5-7.3,7.4-7.3c3.2,0,4.9,2.5,4.9,5.9
		C411.4,336.1,410,339.1,407.6,341.3 M433.3,322.6h-49.4v0.6l2.9,3.5h10.4c-2,1.3-3.2,3.3-3.2,5.9c0,4.6,4.3,8.7,11.6,10.2
		c-4,2.6-9.9,3.5-16.3,2.9v3c5.8,6.1,10.2,10.5,15.5,15.3h5.9v-0.6c-5.6-4.2-10.2-8-15.2-12.8c11.2,0.1,20-6.1,20-14.7
		c0-4-1.3-7.1-3.5-9.2h10.6v35l4,2.5h0.6v-37.6h8.8v-0.6L433.3,322.6z"/>
	<path class="st4" d="M432.7,428.1h-48.2v0.6l2.9,3.5H402l0.1,6.6c-3.2,0.1-6.3,0.9-9.6,3.7l3.5,4.1c2.7-2.4,5.9-3.3,8.3-3.3
		c3.2,0,5.8,1.6,5.8,4.7c0,4.9-5.1,7.6-11,8.2l-0.8-1.2c-1.1-1.8-2-2.3-3.3-2.3c-1.7,0-3,1.4-3,3.1c0,2.9,2.8,4.7,6.4,5.2l6.1,10.2
		h5.4v-0.6l-8-9.5c7.2-0.6,12.2-5.1,12.2-10.3c0-4.9-3.3-9.5-7.8-11.2l0.1-7.3h15.3v35l4,2.5h0.6v-37.6h8.8v-0.6L432.7,428.1z"/>
	<path class="st4" d="M475.4,338.1c-2.3-1.3-4.4-3.4-4.4-5.9c0-3.5,3.1-5.9,6.7-5.9c2.9,0,4.9,1.7,4.9,4.5
		C482.6,333.9,480.8,335.9,475.4,338.1 M506.9,322.6h-18.7v0.6l2.9,3.5h5.2v12.1c-3.9,2-9.3,2.5-14,1.4c3.3-2.1,4.5-4.6,4.5-7.7
		c0-5.6-4.5-10.5-10.7-10.4c-5,0.1-9.5,3.6-9.5,8.7c0,3.9,2.7,6.8,6.1,8.5c-7.3,3-9.9,5.4-9.9,9.7c0,6.5,6.7,11.6,14.1,11.6
		c2,0,4-0.3,5.7-0.8l2,9.2h5.2v-0.6l-4.2-9.9c1.5-0.9,2.3-2.1,2.3-3.7c0-2.5-2.5-5.1-4.9-5.1c-1.9,0-2.8,1.4-2.3,3.3l0.5,2.1
		c-2,0.9-3.7,1.5-6.5,1.5c-4,0-7.6-1.8-7.6-5.2c0-2.9,1.2-5,9.3-8.1c1-0.4,1.9-0.8,2.8-1.2c5.2,2.4,11.9,3.6,17.1,2.1l-0.2,17.7
		l4,2.5h0.6v-37.6h8.8v-0.6L506.9,322.6z"/>
	<path class="st4" d="M506.9,428.1h-50.3v0.6l2.9,3.5h36.8v7.2h-35.9v0.6l3.1,3.8h8.6c-3,2-4.9,4.8-4.9,9c0,6.7,6.4,12.1,12.9,12.1
		c1.4,0,2.8-0.2,4-0.5l2.1,8.8h5.2v-0.6l-4.2-9.6c1.4-0.9,2.3-2.3,2.3-3.9c0-2.5-2.4-4.9-4.8-4.9c-1.9,0-2.7,1.4-2.3,3.3l0.6,2.3
		c-1.2,0.6-2.5,0.9-4.1,0.9c-4.4,0-7.4-2.6-7.4-6.8c0-5,3.9-8.3,8.9-10.2h16l-0.2,23.4l4,2.5h0.6v-37.6h8.8v-0.6L506.9,428.1z"/>
	<path class="st4" d="M69.1,322.6H48.6v0.6l2.9,3.5h7.1v13.1c-4.4,2.7-10,3.3-15.3,0.6c2.3-1.6,3.7-3.8,3.7-6.6
		c0-6.9-5.4-11.6-12.1-11.6c-2.8,0-6,0.9-8.8,2.3l3.2,4.6c2.7-1.5,5.6-2.2,8.1-2.2c3.3,0,5.9,1.7,5.9,4.5c0,4-5.8,6.8-14.1,7.8v0.6
		l2.7,4c3.7-0.4,6.9-1.3,9.3-2.5c2.4,2.3,3.4,4.7,3.4,6.9c0,4-3.2,6.6-8,6.6c-5.7,0-9.5-2.5-13.5-6.1h-0.6v2.9
		c4.1,4.1,8.9,7.9,15.6,7.9c6.8,0,10.4-4.1,10.4-8.9c0-2.3-0.8-4.7-2.4-6.9c4.7,2.2,9,2.3,12.5,1.1l-0.2,16.7l4,2.5h0.6v-37.6H72
		v-0.6L69.1,322.6z"/>
	<path class="st4" d="M58.7,448.7c-3.2,3-5.9,3.9-8.7,3.9c-3.5,0-5.3-2-5.3-5.3v-15.1h14V448.7z M69.3,428.1H18v0.6l2.9,3.5H40v11.4
		l-0.1-0.1c-2.8-2.7-5.5-4.5-9.3-4.5c-2.3,0-5.2,1-7.6,2.7l3.2,3.9c2-1.4,4-2.2,6.1-2.2c2.8,0,4.5,1.3,6.9,3.6l0.9,0.9l-13.9,8.9
		l4.4,3.4l11.8-8.3c1.9,2.3,4.7,4.2,7.6,4.7l-11.1,8.7l4.4,3.2l15.5-14.1l-0.2,12.9l4,2.5h0.6v-37.6h8.8v-0.6L69.3,428.1z"/>
	<path class="st4" d="M148.5,326.7v-0.6l-2.9-3.5H87.8v0.6l2.9,3.5h25.7v14.2l-2.2-2.4c-2.9-3.2-6.5-4.8-10.2-4.8
		c-2.8,0-5.7,0.9-8.5,2.7l3.1,4.2c2.5-1.6,4.9-2.5,7.1-2.5c2.7,0,5.2,1.2,7.5,3.8l2.8,3.2l-19.3,10.4l3.8,3.9l16-9.2l-0.2,11.5
		l4,2.5h0.6v-18.4c4.2,0,8.7-1.1,11.9-2.7l1.6,3.5c0.3,0.6,0.2,0.9-0.4,1.1c-6.4,2-7.7,4.2-7.7,6.6c0,4.1,5.2,8.8,10.9,8.8
		c3,0,5.9-1.2,9.1-3.5l-3.2-4.2c-3.4,2.5-5.6,3.7-8.3,3.7c-2,0-3.9-0.9-3.9-2.7c0-1.6,1.1-3,8-5.4c0.7-0.3,1-0.6,1-1.1
		c0-0.3-0.1-0.6-0.3-0.9l-4.1-7.5c1.3-1.1,2-2.3,2-3.6c0-2.2-2.5-4.6-4.9-4.6c-2.1,0-3.3,1.7-2.5,3.7l0.9,2.1
		c-2.8,2.1-6.3,3.2-10.1,3.5v-16H148.5z"/>
	<path class="st4" d="M121,432.2h14.9v14H121V432.2z M139.6,463.9c0.7-0.3,1-0.6,1-1.1v-30.5h7.9v-0.6l-2.9-3.5H87.8v0.6l2.9,3.5
		h25.7v12.1l-2.2-2.4c-2.9-3.2-6.5-4.8-10.2-4.8c-2.8,0-5.7,0.9-8.5,2.7l3.1,4.2c2.5-1.6,4.9-2.5,7.1-2.5c2.7,0,5.2,1.2,7.5,3.8
		l2.8,3.2l-19.3,9.7l3.8,3.9l16-8.7l-0.2,13.6l4,2.5h0.6v-19.4h14.9v9.7c-7.1,2.1-8.9,4.7-8.9,7.2c0,4.1,5.2,8.8,10.9,8.8
		c3,0,5.9-1.2,9.1-3.5l-3.2-4.2c-3.4,2.5-5.6,3.7-8.3,3.7c-2,0-3.9-0.9-3.9-2.7C131.6,467.7,132.7,466.3,139.6,463.9"/>
</g>
<g>
	<line class="st5" x1="155.4" y1="286" x2="155.4" y2="502.6"/>
	<line class="st5" x1="82.4" y1="286" x2="82.4" y2="502.6"/>
	<line class="st5" x1="228.4" y1="286" x2="228.4" y2="502.6"/>
	<line class="st5" x1="301.4" y1="286" x2="301.4" y2="502.6"/>
	<line class="st5" x1="374.5" y1="286" x2="374.5" y2="502.6"/>
	<line class="st5" x1="447.5" y1="286" x2="447.5" y2="502.6"/>
</g>
<line class="st6" x1="520.5" y1="394.1" x2="10.4" y2="394.1"/>
<path class="st5" d="M512.7,502.6H18.2c-4.3,0-7.8-3.5-7.8-7.8v-201c0-4.3,3.5-7.8,7.8-7.8h494.5c4.3,0,7.8,3.5,7.8,7.8v201
	C520.5,499.1,517,502.6,512.7,502.6z"/>
</svg>
