<?xml version="1.0" encoding="UTF-8" standalone="no"?>
<!DOCTYPE svg PUBLIC "-//W3C//DTD SVG 1.1//EN" "http://www.w3.org/Graphics/SVG/1.1/DTD/svg11.dtd">
<svg width="100%" height="100%" viewBox="0 0 600 400" version="1.1" xmlns="http://www.w3.org/2000/svg" xmlns:xlink="http://www.w3.org/1999/xlink" xml:space="preserve" xmlns:serif="http://www.serif.com/" style="fill-rule:evenodd;clip-rule:evenodd;stroke-linejoin:round;">
    <rect x="0" y="0" width="600" height="400" style="fill:white;"/>
    <rect x="53.939" y="11.811" width="534.252" height="344.594" style="fill:white;"/>
    <path d="M69.059,356.405L69.059,11.811" style="fill:none;fill-rule:nonzero;stroke:black;stroke-opacity:0.1;stroke-width:0.5px;"/>
    <path d="M169.962,356.405L169.962,11.811" style="fill:none;fill-rule:nonzero;stroke:black;stroke-opacity:0.1;stroke-width:0.5px;"/>
    <path d="M270.865,356.405L270.865,11.811" style="fill:none;fill-rule:nonzero;stroke:black;stroke-opacity:0.1;stroke-width:0.5px;"/>
    <path d="M371.768,356.405L371.768,11.811" style="fill:none;fill-rule:nonzero;stroke:black;stroke-opacity:0.1;stroke-width:0.5px;"/>
    <path d="M472.67,356.405L472.67,11.811" style="fill:none;fill-rule:nonzero;stroke:black;stroke-opacity:0.1;stroke-width:0.5px;"/>
    <path d="M573.573,356.405L573.573,11.811" style="fill:none;fill-rule:nonzero;stroke:black;stroke-opacity:0.1;stroke-width:0.5px;"/>
    <path d="M53.939,356.405L588.19,356.405" style="fill:none;fill-rule:nonzero;stroke:black;stroke-width:1px;"/>
    <path d="M69.059,356.405L69.059,351.68" style="fill:none;fill-rule:nonzero;stroke:black;stroke-width:1px;"/>
    <path d="M169.962,356.405L169.962,351.68" style="fill:none;fill-rule:nonzero;stroke:black;stroke-width:1px;"/>
    <path d="M270.865,356.405L270.865,351.68" style="fill:none;fill-rule:nonzero;stroke:black;stroke-width:1px;"/>
    <path d="M371.768,356.405L371.768,351.68" style="fill:none;fill-rule:nonzero;stroke:black;stroke-width:1px;"/>
    <path d="M472.67,356.405L472.67,351.68" style="fill:none;fill-rule:nonzero;stroke:black;stroke-width:1px;"/>
    <path d="M573.573,356.405L573.573,351.68" style="fill:none;fill-rule:nonzero;stroke:black;stroke-width:1px;"/>
    <g transform="matrix(1,0,0,1,69.0588,371.705)">
        <text x="-3.337px" y="0px" style="font-family:'ArialMT', 'Arial', sans-serif;font-size:12px;">0</text>
    </g>
    <g transform="matrix(1,0,0,1,169.962,371.705)">
        <text x="-6.674px" y="0px" style="font-family:'ArialMT', 'Arial', sans-serif;font-size:12px;">20</text>
    </g>
    <g transform="matrix(1,0,0,1,270.865,371.705)">
        <text x="-6.674px" y="0px" style="font-family:'ArialMT', 'Arial', sans-serif;font-size:12px;">40</text>
    </g>
    <g transform="matrix(1,0,0,1,371.767,371.705)">
        <text x="-6.674px" y="0px" style="font-family:'ArialMT', 'Arial', sans-serif;font-size:12px;">60</text>
    </g>
    <g transform="matrix(1,0,0,1,472.67,371.705)">
        <text x="-6.674px" y="0px" style="font-family:'ArialMT', 'Arial', sans-serif;font-size:12px;">80</text>
    </g>
    <g transform="matrix(1,0,0,1,573.572,371.705)">
        <text x="-10.011px" y="0px" style="font-family:'ArialMT', 'Arial', sans-serif;font-size:12px;">100</text>
    </g>
    <g transform="matrix(1,0,0,1,321.062,392.87)">
        <text x="-75.201px" y="0px" style="font-family:'ArialMT', 'Arial', sans-serif;font-size:16.5px;">serial passage times</text>
    </g>
    <path d="M53.939,346.652L588.19,346.652" style="fill:none;fill-rule:nonzero;stroke:black;stroke-opacity:0.1;stroke-width:0.5px;"/>
    <path d="M53.939,281.635L588.19,281.635" style="fill:none;fill-rule:nonzero;stroke:black;stroke-opacity:0.1;stroke-width:0.5px;"/>
    <path d="M53.939,216.617L588.19,216.617" style="fill:none;fill-rule:nonzero;stroke:black;stroke-opacity:0.1;stroke-width:0.5px;"/>
    <path d="M53.939,151.599L588.19,151.599" style="fill:none;fill-rule:nonzero;stroke:black;stroke-opacity:0.1;stroke-width:0.5px;"/>
    <path d="M53.939,86.581L588.19,86.581" style="fill:none;fill-rule:nonzero;stroke:black;stroke-opacity:0.1;stroke-width:0.5px;"/>
    <path d="M53.939,21.563L588.19,21.563" style="fill:none;fill-rule:nonzero;stroke:black;stroke-opacity:0.1;stroke-width:0.5px;"/>
    <path d="M53.939,356.405L53.939,11.811" style="fill:none;fill-rule:nonzero;stroke:black;stroke-width:1px;"/>
    <path d="M53.939,346.652L58.663,346.652" style="fill:none;fill-rule:nonzero;stroke:black;stroke-width:1px;"/>
    <path d="M53.939,281.635L58.663,281.635" style="fill:none;fill-rule:nonzero;stroke:black;stroke-width:1px;"/>
    <path d="M53.939,216.617L58.663,216.617" style="fill:none;fill-rule:nonzero;stroke:black;stroke-width:1px;"/>
    <path d="M53.939,151.599L58.663,151.599" style="fill:none;fill-rule:nonzero;stroke:black;stroke-width:1px;"/>
    <path d="M53.939,86.581L58.663,86.581" style="fill:none;fill-rule:nonzero;stroke:black;stroke-width:1px;"/>
    <path d="M53.939,21.563L58.663,21.563" style="fill:none;fill-rule:nonzero;stroke:black;stroke-width:1px;"/>
    <g transform="matrix(1,0,0,1,44.9385,351.027)">
        <text x="-16.682px" y="0px" style="font-family:'ArialMT', 'Arial', sans-serif;font-size:12px;">0.0</text>
    </g>
    <g transform="matrix(1,0,0,1,44.9385,286.01)">
        <text x="-16.682px" y="0px" style="font-family:'ArialMT', 'Arial', sans-serif;font-size:12px;">0.2</text>
    </g>
    <g transform="matrix(1,0,0,1,44.9385,220.992)">
        <text x="-16.682px" y="0px" style="font-family:'ArialMT', 'Arial', sans-serif;font-size:12px;">0.4</text>
    </g>
    <g transform="matrix(1,0,0,1,44.9385,155.974)">
        <text x="-16.682px" y="0px" style="font-family:'ArialMT', 'Arial', sans-serif;font-size:12px;">0.6</text>
    </g>
    <g transform="matrix(1,0,0,1,44.9385,90.956)">
        <text x="-16.682px" y="0px" style="font-family:'ArialMT', 'Arial', sans-serif;font-size:12px;">0.8</text>
    </g>
    <g transform="matrix(1,0,0,1,44.9385,25.9383)">
        <text x="-16.682px" y="0px" style="font-family:'ArialMT', 'Arial', sans-serif;font-size:12px;">1.0</text>
    </g>
    <g transform="matrix(-3.82857e-16,-1,1,-3.82857e-16,16.3215,184.108)">
        <text x="-86.689px" y="0px" style="font-family:'ArialMT', 'Arial', sans-serif;font-size:16.5px;">proportion of population</text>
    </g>
    <path d="M69.059,21.564L70.068,21.564L70.572,21.564L72.591,21.564L73.095,21.564L74.104,21.564L74.609,21.564L75.113,21.564L75.618,21.564L76.122,21.564L78.644,21.564L79.149,21.564L79.653,21.564L80.158,21.565L80.663,21.565L82.681,21.565L83.185,21.565L83.69,21.565L84.194,21.565L84.699,21.565L86.212,21.566L86.717,21.566L87.221,21.566L87.726,21.566L88.23,21.566L89.744,21.566L90.249,21.567L90.753,21.567L93.275,21.567L95.798,21.568L98.321,21.569L100.339,21.57L100.843,21.57L101.348,21.571L101.852,21.571L102.861,21.571L103.87,21.572L104.375,21.572L104.879,21.573L105.888,21.573L107.906,21.574L109.42,21.575L110.934,21.577L112.447,21.578L113.456,21.579L114.97,21.58L116.483,21.581L116.988,21.582L117.492,21.582L117.997,21.583L118.501,21.584L119.006,21.584L119.51,21.585L120.015,21.585L120.519,21.586L121.528,21.587L123.042,21.589L123.546,21.589L124.051,21.59L124.555,21.591L125.06,21.592L126.574,21.594L127.078,21.594L127.583,21.595L128.592,21.597L129.601,21.598L130.105,21.599L131.114,21.601L131.619,21.602L132.123,21.603L133.132,21.605L133.637,21.606L134.141,21.607L135.15,21.609L135.655,21.61L137.168,21.613L137.673,21.614L138.682,21.617L139.691,21.619L140.195,21.62L141.204,21.623L141.709,21.624L142.214,21.626L143.223,21.628L143.727,21.63L144.736,21.633L145.241,21.634L145.745,21.636L146.754,21.639L147.259,21.641L147.763,21.642L148.268,21.644L149.277,21.648L150.286,21.651L150.79,21.653L151.799,21.657L152.304,21.659L152.808,21.661L153.313,21.663L153.817,21.665L154.322,21.667L154.826,21.669L155.331,21.672L155.835,21.674L156.34,21.676L156.844,21.679L157.349,21.681L157.853,21.683L158.358,21.686L158.863,21.688L159.367,21.691L159.872,21.694L160.376,21.696L160.881,21.699L161.385,21.702L161.89,21.705L162.394,21.707L162.899,21.71L163.403,21.713L163.908,21.716L164.412,21.72L164.917,21.723L165.421,21.726L165.926,21.729L166.43,21.732L166.935,21.736L167.439,21.739L167.944,21.743L168.448,21.746L168.953,21.75L169.457,21.754L169.962,21.758L170.466,21.761L170.971,21.765L171.475,21.769L171.98,21.773L172.484,21.778L172.989,21.782L173.493,21.786L173.998,21.79L174.502,21.795L175.007,21.799L175.511,21.804L176.016,21.809L176.521,21.814L177.025,21.818L177.53,21.823L178.034,21.828L178.539,21.834L179.043,21.839L179.548,21.844L180.052,21.85L180.557,21.855L181.061,21.861L181.565,21.867L182.07,21.872L182.575,21.878L183.079,21.885L183.583,21.891L184.088,21.897L184.593,21.903L185.097,21.91L185.602,21.917L186.106,21.923L186.611,21.93L187.115,21.937L187.62,21.944L188.124,21.952L188.629,21.959L189.133,21.967L189.638,21.974L190.142,21.982L190.647,21.99L191.151,21.998L191.656,22.006L192.16,22.015L192.665,22.023L193.169,22.032L193.674,22.041L194.179,22.05L194.683,22.059L195.188,22.068L195.692,22.078L196.196,22.087L196.701,22.097L197.206,22.107L197.71,22.117L198.214,22.128L198.719,22.138L199.224,22.149L199.728,22.16L200.232,22.171L200.737,22.183L201.242,22.194L201.746,22.206L202.25,22.218L202.755,22.23L203.26,22.243L203.764,22.255L204.269,22.268L204.773,22.281L205.278,22.295L205.782,22.308L206.287,22.322L206.791,22.336L207.296,22.35L207.8,22.365L208.305,22.38L208.809,22.395L209.314,22.41L209.818,22.426L210.323,22.442L210.827,22.458L211.332,22.474L211.837,22.491L212.341,22.508L212.845,22.526L213.35,22.543L213.855,22.561L214.359,22.58L214.863,22.598L215.368,22.617L215.873,22.637L216.377,22.656L216.881,22.676L217.386,22.697L217.891,22.717L218.395,22.739L218.899,22.76L219.404,22.782L219.909,22.804L220.413,22.827L220.918,22.85L221.422,22.873L221.927,22.897L222.431,22.921L222.936,22.946L223.44,22.971L223.945,22.997L224.449,23.023L224.954,23.049L225.458,23.076L225.963,23.104L226.467,23.131L226.972,23.16L227.476,23.189L227.981,23.218L228.485,23.248L228.99,23.279L229.494,23.309L229.999,23.341L230.504,23.373L231.008,23.406L231.512,23.439L232.017,23.473L232.522,23.507L233.026,23.542L233.53,23.577L234.035,23.614L234.54,23.65L235.044,23.688L235.548,23.726L236.053,23.765L236.558,23.804L237.062,23.844L237.567,23.885L238.071,23.926L238.576,23.969L239.08,24.012L239.585,24.055L240.089,24.1L240.594,24.145L241.098,24.191L241.603,24.238L242.107,24.285L242.612,24.334L243.116,24.383L243.621,24.433L244.125,24.484L244.63,24.535L245.134,24.588L245.639,24.642L246.143,24.696L246.648,24.751L247.153,24.808L247.657,24.865L248.161,24.923L248.666,24.982L249.171,25.043L249.675,25.104L250.18,25.166L250.685,25.229L251.188,25.294L251.693,25.359L252.198,25.426L252.702,25.493L253.208,25.562L253.71,25.632L254.215,25.703L254.72,25.775L255.225,25.849L255.73,25.923L256.233,25.999L256.738,26.076L257.243,26.155L257.748,26.235L258.253,26.316L258.755,26.398L259.26,26.482L259.765,26.567L260.27,26.653L260.775,26.741L261.28,26.83L261.783,26.921L262.288,27.013L262.793,27.107L263.298,27.202L263.803,27.299L264.305,27.397L264.81,27.497L265.315,27.598L265.82,27.701L266.325,27.806L266.828,27.912L267.333,28.02L267.838,28.13L268.342,28.241L268.848,28.354L269.35,28.469L269.855,28.586L270.36,28.705L270.865,28.825L271.37,28.947L271.873,29.072L272.378,29.198L272.883,29.326L273.388,29.456L273.893,29.587L274.395,29.722L274.9,29.858L275.405,29.996L275.91,30.136L276.415,30.278L276.918,30.422L277.423,30.569L277.928,30.718L278.433,30.869L278.938,31.022L279.443,31.177L279.945,31.335L280.45,31.495L280.955,31.657L281.46,31.822L281.965,31.989L282.467,32.158L282.973,32.33L283.478,32.505L283.983,32.681L284.488,32.861L284.99,33.042L285.495,33.227L286,33.414L286.505,33.603L287.01,33.795L287.513,33.99L288.018,34.188L288.523,34.388L289.027,34.591L289.533,34.796L290.035,35.004L290.54,35.215L291.045,35.429L291.55,35.646L292.055,35.866L292.558,36.088L293.063,36.313L293.568,36.541L294.073,36.772L294.578,37.006L295.083,37.243L295.585,37.483L296.09,37.726L296.595,37.972L297.1,38.221L297.605,38.473L298.108,38.728L298.613,38.986L299.118,39.247L299.623,39.511L300.128,39.779L300.63,40.049L301.135,40.323L301.64,40.599L302.145,40.879L302.65,41.162L303.152,41.448L303.658,41.737L304.163,42.03L304.668,42.326L305.173,42.624L305.675,42.926L306.18,43.231L306.685,43.54L307.19,43.851L307.695,44.166L308.198,44.484L308.703,44.805L309.208,45.129L309.712,45.457L310.217,45.787L310.72,46.121L311.225,46.457L311.73,46.797L312.235,47.14L312.74,47.487L313.245,47.836L313.748,48.188L314.253,48.543L314.758,48.902L315.263,49.263L315.768,49.628L316.27,49.995L316.775,50.365L317.28,50.739L317.785,51.115L318.29,51.493L318.793,51.876L319.298,52.26L319.803,52.648L320.308,53.038L320.813,53.431L321.315,53.827L321.82,54.225L322.325,54.626L322.83,55.029L323.335,55.435L323.837,55.844L324.342,56.255L324.848,56.668L325.353,57.084L325.858,57.502L326.36,57.922L326.865,58.344L327.37,58.769L327.875,59.196L328.38,59.624L328.883,60.055L329.388,60.487L329.893,60.922L330.398,61.359L330.902,61.797L331.408,62.237L331.91,62.678L332.415,63.121L332.92,63.566L333.425,64.012L333.93,64.459L334.433,64.908L334.938,65.358L335.443,65.809L335.948,66.261L336.453,66.715L336.955,67.169L337.46,67.624L337.965,68.08L338.47,68.537L338.975,68.995L339.478,69.453L339.983,69.911L340.488,70.371L340.993,70.83L341.498,71.29L342,71.75L342.505,72.211L343.01,72.671L344.02,73.592L344.523,74.052L345.027,74.512L345.533,74.972L346.038,75.431L346.543,75.89L347.045,76.349L347.55,76.807L348.055,77.264L348.56,77.721L349.065,78.177L349.57,78.632L350.073,79.086L350.578,79.539L351.083,79.991L351.587,80.442L352.092,80.891L352.595,81.34L353.1,81.787L353.605,82.233L354.11,82.677L354.615,83.12L355.118,83.561L355.623,84L356.128,84.438L356.633,84.874L357.138,85.308L357.64,85.74L358.145,86.17L358.65,86.598L359.155,87.024L359.66,87.448L360.163,87.87L360.668,88.289L361.173,88.707L361.678,89.122L362.183,89.534L362.685,89.944L363.19,90.352L363.695,90.757L364.2,91.16L364.705,91.56L365.21,91.957L365.712,92.352L366.217,92.744L366.723,93.133L367.228,93.519L367.733,93.903L368.235,94.284L368.74,94.662L369.245,95.037L369.75,95.409L370.255,95.778L370.758,96.145L371.263,96.508L371.768,96.868L372.273,97.225L372.777,97.579L373.28,97.93L373.785,98.278L374.29,98.623L374.795,98.965L375.3,99.303L375.803,99.639L376.308,99.971L376.813,100.3L377.318,100.626L377.823,100.949L378.325,101.268L378.83,101.584L379.335,101.897L379.84,102.207L380.345,102.514L380.848,102.818L381.353,103.118L381.858,103.415L382.363,103.709L382.868,104L383.373,104.287L383.875,104.572L384.38,104.853L384.885,105.131L385.39,105.406L385.895,105.677L386.398,105.946L386.902,106.212L387.408,106.474L387.913,106.733L388.418,106.989L388.92,107.242L389.425,107.492L389.93,107.739L390.435,107.983L390.94,108.224L391.443,108.462L391.948,108.697L392.453,108.929L392.958,109.158L393.462,109.384L393.965,109.607L394.47,109.828L394.975,110.045L395.48,110.26L395.985,110.472L396.488,110.68L396.993,110.887L397.498,111.09L398.003,111.291L398.508,111.489L399.01,111.684L399.515,111.877L400.02,112.067L400.525,112.254L401.03,112.439L401.535,112.622L402.038,112.801L402.543,112.978L403.048,113.153L403.553,113.325L404.058,113.495L404.56,113.662L405.065,113.827L405.57,113.99L406.075,114.15L406.58,114.308L407.083,114.463L407.587,114.616L408.092,114.767L408.598,114.916L409.103,115.063L409.605,115.207L410.11,115.35L410.615,115.49L411.12,115.628L411.625,115.763L412.128,115.897L412.633,116.029L413.138,116.159L413.643,116.287L414.148,116.413L414.65,116.537L415.155,116.659L415.66,116.78L416.165,116.898L416.67,117.015L417.173,117.129L417.678,117.242L418.183,117.353L418.688,117.463L419.193,117.571L419.698,117.677L420.2,117.781L420.705,117.884L421.21,117.985L421.715,118.084L422.22,118.182L422.723,118.278L423.228,118.373L423.733,118.467L424.238,118.558L424.743,118.649L425.245,118.738L425.75,118.825L426.255,118.911L426.76,118.996L427.265,119.079L427.768,119.161L428.272,119.242L428.777,119.321L429.283,119.399L429.788,119.476L430.29,119.551L430.795,119.625L431.3,119.698L431.805,119.77L432.31,119.841L432.813,119.91L433.318,119.978L433.823,120.045L434.328,120.111L434.833,120.176L435.337,120.24L435.84,120.303L436.345,120.365L436.85,120.426L437.355,120.485L437.86,120.544L438.363,120.602L438.868,120.658L439.373,120.714L439.878,120.769L440.383,120.823L440.885,120.876L441.39,120.928L441.895,120.979L442.4,121.03L442.905,121.079L443.408,121.128L443.913,121.176L444.418,121.223L444.923,121.269L445.428,121.315L445.93,121.359L446.435,121.403L446.94,121.447L447.445,121.489L447.95,121.531L448.453,121.572L448.958,121.612L449.462,121.652L449.967,121.691L450.473,121.729L450.975,121.766L451.48,121.804L451.985,121.84L452.49,121.876L452.995,121.911L453.5,121.945L454.003,121.979L454.508,122.012L455.013,122.045L455.518,122.077L456.022,122.109L456.525,122.14L457.03,122.171L457.535,122.201L458.04,122.23L458.545,122.259L459.048,122.287L459.553,122.315L460.058,122.343L460.563,122.37L461.068,122.397L461.57,122.423L462.075,122.448L462.58,122.473L463.085,122.498L463.59,122.522L464.092,122.546L464.598,122.57L465.103,122.593L465.608,122.616L466.113,122.638L466.615,122.66L467.12,122.681L467.625,122.702L468.13,122.723L468.635,122.744L469.138,122.763L469.643,122.783L470.147,122.802L470.652,122.822L471.158,122.84L471.663,122.859L472.165,122.876L472.67,122.894L473.175,122.912L473.68,122.929L474.185,122.946L474.688,122.962L475.193,122.978L475.698,122.994L476.708,123.025L477.21,123.04L477.715,123.055L478.22,123.07L479.23,123.098L479.733,123.112L480.238,123.126L481.248,123.152L481.753,123.165L482.255,123.177L482.76,123.19L484.275,123.226L484.777,123.238L485.788,123.26L486.293,123.271L486.798,123.282L487.3,123.292L487.805,123.303L488.31,123.313L488.815,123.323L489.825,123.343L490.328,123.352L490.833,123.362L492.348,123.388L492.85,123.397L493.86,123.414L494.365,123.423L494.87,123.43L495.373,123.439L496.383,123.454L497.393,123.469L497.895,123.476L498.4,123.484L498.905,123.491L499.41,123.497L499.915,123.504L500.418,123.511L500.923,123.518L501.428,123.524L501.933,123.53L502.438,123.536L502.94,123.543L503.445,123.549L505.465,123.572L505.967,123.577L507.483,123.593L507.988,123.598L508.49,123.603L508.995,123.608L509.5,123.613L510.005,123.618L510.51,123.622L511.013,123.627L512.023,123.636L513.033,123.644L513.535,123.649L514.04,123.653L514.545,123.657L515.05,123.661L515.555,123.665L516.058,123.668L517.068,123.676L517.573,123.68L518.078,123.683L518.58,123.687L519.085,123.69L519.59,123.694L520.095,123.697L520.6,123.7L521.102,123.704L521.607,123.707L522.112,123.71L523.628,123.719L524.13,123.722L524.635,123.725L526.15,123.733L526.653,123.735L527.158,123.738L528.673,123.746L529.175,123.748L529.68,123.75L530.185,123.753L531.195,123.757L531.698,123.76L532.708,123.764L533.718,123.768L534.22,123.77L534.725,123.772L535.23,123.774L536.24,123.778L536.742,123.78L537.247,123.782L538.763,123.787L539.265,123.789L539.77,123.79L540.275,123.792L540.78,123.794L541.285,123.795L541.79,123.797L542.293,123.799L544.313,123.805L544.815,123.806L545.32,123.807L545.825,123.808L546.33,123.81L546.835,123.811L547.338,123.813L549.358,123.818L549.86,123.819L550.87,123.821L551.375,123.822L551.88,123.824L552.383,123.825L552.888,123.826L553.393,123.827L554.403,123.829L554.905,123.83L556.42,123.833L556.925,123.834L557.428,123.835L557.933,123.836L558.438,123.836L559.448,123.838L560.455,123.84L560.96,123.841L562.475,123.843L564.997,123.847L567.015,123.85L567.52,123.85L568.528,123.852L569.033,123.852L569.538,123.853L570.043,123.854L570.545,123.854L571.555,123.855L572.06,123.856L573.068,123.857" style="fill:none;fill-rule:nonzero;stroke:rgb(0,128,0);stroke-width:2px;"/>
    <path d="M69.059,346.652L76.122,346.652L76.626,346.65L96.303,346.65L96.807,346.648L107.906,346.648L108.411,346.645L115.979,346.645L116.483,346.643L122.537,346.643L123.042,346.64L127.583,346.64L128.087,346.638L132.123,346.638L132.628,346.635L135.655,346.635L136.159,346.633L139.186,346.633L139.691,346.63L142.214,346.63L142.718,346.628L144.736,346.628L145.241,346.625L147.259,346.625L147.763,346.623L149.781,346.623L150.286,346.62L151.799,346.62L152.304,346.618L153.817,346.618L154.322,346.615L155.331,346.615L155.835,346.613L157.349,346.613L157.853,346.61L158.863,346.61L159.367,346.608L160.376,346.608L160.881,346.605L161.89,346.605L162.394,346.603L163.403,346.603L163.908,346.6L164.412,346.6L164.917,346.598L165.926,346.598L166.43,346.595L166.935,346.595L167.439,346.592L167.944,346.592L168.448,346.59L169.457,346.59L169.962,346.587L170.466,346.587L170.971,346.585L171.475,346.585L171.98,346.583L172.484,346.583L172.989,346.58L173.493,346.58L173.998,346.578L174.502,346.578L175.511,346.573L176.016,346.573L176.521,346.57L177.025,346.57L178.034,346.565L178.539,346.565L179.548,346.56L180.052,346.56L181.061,346.555L181.565,346.555L182.575,346.55L183.079,346.55L185.097,346.54L185.602,346.54L188.124,346.527L188.629,346.527L193.674,346.503L194.179,346.5L194.683,346.495L197.206,346.483L197.71,346.478L199.224,346.47L199.728,346.465L200.737,346.46L201.242,346.455L201.746,346.453L202.25,346.448L202.755,346.445L203.26,346.44L203.764,346.438L204.269,346.433L204.773,346.43L205.278,346.425L205.782,346.423L207.296,346.408L207.8,346.405L209.818,346.385L210.323,346.383L211.332,346.373L212.341,346.363L212.845,346.355L215.368,346.33L215.873,346.323L216.881,346.313L217.386,346.305L217.891,346.3L218.395,346.293L218.899,346.288L219.909,346.273L220.413,346.268L222.431,346.238L222.936,346.233L223.945,346.217L224.449,346.208L226.467,346.178L226.972,346.168L227.476,346.16L227.981,346.15L228.485,346.143L228.99,346.133L229.494,346.125L234.54,346.025L235.044,346.013L235.548,346.003L236.053,345.99L236.558,345.98L237.567,345.955L238.071,345.943L241.098,345.868L241.603,345.853L242.107,345.84L243.116,345.81L243.621,345.798L245.134,345.753L245.639,345.735L246.143,345.72L246.648,345.705L247.153,345.688L247.657,345.673L249.675,345.603L250.685,345.568L251.188,345.55L251.693,345.53L252.198,345.513L253.208,345.473L253.71,345.453L254.72,345.413L255.225,345.39L255.73,345.37L256.233,345.348L256.738,345.328L258.253,345.26L258.755,345.235L259.765,345.19L261.28,345.115L261.783,345.09L262.288,345.065L262.793,345.038L263.298,345.013L263.803,344.985L264.305,344.958L265.82,344.875L266.325,344.845L266.828,344.815L267.333,344.788L267.838,344.758L268.342,344.725L268.848,344.695L269.35,344.665L271.37,344.535L271.873,344.5L272.378,344.467L273.893,344.363L274.395,344.328L274.9,344.29L275.405,344.255L276.415,344.18L276.918,344.143L277.423,344.103L277.928,344.065L279.443,343.945L279.945,343.902L280.45,343.863L281.965,343.735L282.467,343.69L282.973,343.648L284.488,343.513L284.99,343.467L285.495,343.42L286,343.375L287.01,343.28L287.513,343.23L288.018,343.183L289.533,343.033L290.035,342.983L290.54,342.93L291.045,342.88L292.055,342.775L292.558,342.723L293.063,342.668L293.568,342.615L295.083,342.45L295.585,342.395L296.09,342.34L297.1,342.225L297.605,342.17L298.108,342.11L299.623,341.938L300.128,341.878L300.63,341.818L302.65,341.578L303.152,341.518L303.658,341.455L304.163,341.395L305.173,341.27L305.675,341.208L306.18,341.148L307.19,341.023L307.695,340.958L308.198,340.895L309.712,340.708L310.217,340.643L310.72,340.58L311.73,340.455L312.235,340.39L313.245,340.265L313.748,340.203L314.253,340.138L315.768,339.95L316.27,339.888L316.775,339.828L317.785,339.703L318.29,339.643L318.793,339.58L320.308,339.4L320.813,339.342L321.315,339.283L323.335,339.053L323.837,338.995L325.353,338.83L325.858,338.777L326.36,338.725L326.865,338.673L327.37,338.623L327.875,338.57L328.38,338.52L328.883,338.473L330.398,338.33L330.902,338.285L331.408,338.243L331.91,338.198L332.415,338.158L332.92,338.115L333.93,338.035L334.433,337.998L334.938,337.962L335.443,337.925L336.453,337.86L336.955,337.828L337.965,337.768L338.975,337.712L339.478,337.688L339.983,337.663L340.993,337.618L341.498,337.598L342,337.58L342.505,337.563L343.515,337.533L344.02,337.52L344.523,337.508L345.027,337.498L346.543,337.475L347.045,337.473L348.055,337.467L348.56,337.467L349.57,337.473L350.073,337.478L350.578,337.483L351.083,337.49L352.092,337.51L352.595,337.523L353.1,337.535L353.605,337.55L354.615,337.585L355.118,337.603L355.623,337.623L356.633,337.668L357.138,337.693L357.64,337.72L358.145,337.745L359.66,337.835L360.163,337.868L360.668,337.902L361.173,337.935L362.183,338.01L362.685,338.048L363.695,338.128L365.21,338.255L365.712,338.3L366.217,338.345L367.733,338.488L368.235,338.538L369.245,338.638L370.255,338.743L370.758,338.795L372.273,338.96L372.777,339.018L373.28,339.073L374.29,339.188L374.795,339.248L375.3,339.305L375.803,339.365L377.318,339.545L377.823,339.608L378.325,339.668L379.335,339.793L379.84,339.853L380.345,339.915L380.848,339.98L382.363,340.168L382.868,340.233L383.373,340.295L383.875,340.358L384.38,340.423L384.885,340.485L385.39,340.55L385.895,340.613L386.398,340.678L387.408,340.803L387.913,340.868L388.418,340.93L388.92,340.993L389.425,341.058L390.94,341.245L391.443,341.308L392.453,341.433L392.958,341.493L393.462,341.555L393.965,341.615L394.47,341.678L395.985,341.858L396.488,341.918L396.993,341.978L398.003,342.092L398.508,342.152L399.01,342.21L400.02,342.325L400.525,342.38L401.03,342.438L401.535,342.493L402.038,342.548L403.048,342.658L403.553,342.71L404.058,342.765L404.56,342.818L405.57,342.923L406.075,342.973L406.58,343.025L407.083,343.075L408.598,343.225L409.103,343.273L409.605,343.323L410.615,343.418L411.12,343.462L411.625,343.51L412.128,343.555L413.643,343.69L414.148,343.733L414.65,343.777L415.66,343.863L416.165,343.902L416.67,343.945L417.173,343.985L419.193,344.145L419.698,344.183L420.2,344.22L421.21,344.295L421.715,344.33L422.22,344.368L422.723,344.402L424.238,344.508L424.743,344.54L425.245,344.573L427.265,344.703L427.768,344.733L429.788,344.853L430.29,344.883L432.31,344.993L432.813,345.02L433.318,345.048L433.823,345.073L434.328,345.1L435.337,345.15L435.84,345.175L436.345,345.198L436.85,345.223L437.355,345.245L437.86,345.27L438.363,345.293L439.373,345.337L439.878,345.358L440.383,345.38L440.885,345.4L441.39,345.423L442.905,345.483L443.408,345.503L443.913,345.52L444.923,345.56L445.428,345.578L445.93,345.595L447.95,345.665L448.453,345.683L448.958,345.698L449.462,345.715L450.473,345.745L450.975,345.76L451.48,345.777L451.985,345.793L452.49,345.805L453.5,345.835L454.003,345.848L454.508,345.863L455.013,345.875L455.518,345.89L456.022,345.902L456.525,345.915L458.545,345.965L459.048,345.978L459.553,345.988L460.058,346L460.563,346.01L461.068,346.023L461.57,346.033L462.075,346.043L462.58,346.055L463.59,346.075L464.092,346.085L465.103,346.105L465.608,346.113L466.113,346.123L466.615,346.133L467.12,346.14L467.625,346.15L468.13,346.158L468.635,346.168L469.138,346.175L469.643,346.185L471.663,346.215L472.165,346.223L474.185,346.253L474.688,346.26L475.193,346.268L475.698,346.273L476.203,346.28L476.708,346.285L477.21,346.293L477.715,346.3L478.725,346.31L479.23,346.318L479.733,346.323L480.238,346.328L480.743,346.335L481.753,346.345L482.255,346.35L482.76,346.355L483.265,346.363L484.275,346.373L484.777,346.378L485.283,346.38L486.798,346.395L487.3,346.4L487.805,346.405L488.31,346.408L489.32,346.418L489.825,346.42L490.328,346.425L490.833,346.43L491.337,346.433L491.842,346.438L492.348,346.44L492.85,346.445L493.355,346.448L493.86,346.453L494.87,346.458L495.373,346.462L496.383,346.467L496.888,346.473L497.393,346.475L497.895,346.478L498.4,346.48L498.905,346.485L499.915,346.49L500.418,346.493L501.933,346.5L502.438,346.505L502.94,346.508L505.465,346.52L505.967,346.52L507.988,346.53L508.49,346.533L509.5,346.538L510.005,346.538L510.51,346.54L511.013,346.543L511.518,346.545L512.023,346.545L513.033,346.55L513.535,346.553L514.04,346.553L515.05,346.558L515.555,346.558L516.058,346.56L516.563,346.563L517.068,346.563L518.078,346.568L518.58,346.568L519.085,346.57L519.59,346.57L520.095,346.573L520.6,346.573L521.102,346.575L521.607,346.578L522.112,346.578L522.617,346.58L523.122,346.58L523.628,346.583L524.13,346.583L524.635,346.585L525.14,346.585L525.645,346.587L526.653,346.587L527.158,346.59L527.663,346.59L528.168,346.592L528.673,346.592L529.175,346.595L530.185,346.595L530.69,346.598L531.698,346.598L532.203,346.6L532.708,346.6L533.213,346.603L534.22,346.603L534.725,346.605L535.735,346.605L536.24,346.608L537.753,346.608L538.258,346.61L539.265,346.61L539.77,346.613L541.285,346.613L541.79,346.615L543.303,346.615L543.808,346.618L545.32,346.618L545.825,346.62L547.338,346.62L547.843,346.623L549.86,346.623L550.365,346.625L552.888,346.625L553.393,346.628L555.915,346.628L556.42,346.63L559.448,346.63L559.953,346.633L563.483,346.633L563.988,346.635L568.023,346.635L568.528,346.638L573.068,346.638" style="fill:none;fill-rule:nonzero;stroke:rgb(65,0,235);stroke-width:3.5px;"/>
    <path d="M69.059,346.652L89.24,346.652L89.744,346.65L101.852,346.65L102.357,346.648L108.411,346.648L108.915,346.645L113.456,346.645L113.961,346.643L117.492,346.643L117.997,346.64L121.024,346.64L121.528,346.638L124.051,346.638L124.555,346.635L126.574,346.635L127.078,346.633L129.096,346.633L129.601,346.63L131.619,346.63L132.123,346.628L133.132,346.628L133.637,346.625L135.15,346.625L135.655,346.623L136.664,346.623L137.168,346.62L138.682,346.62L139.186,346.618L140.195,346.618L140.7,346.615L141.204,346.615L141.709,346.613L142.718,346.613L143.223,346.61L144.232,346.61L144.736,346.608L145.241,346.608L145.745,346.605L146.25,346.605L146.754,346.603L147.763,346.603L148.268,346.6L148.772,346.6L149.277,346.598L149.781,346.598L150.286,346.595L150.79,346.595L151.295,346.592L151.799,346.592L152.808,346.587L153.313,346.587L153.817,346.585L154.322,346.585L154.826,346.583L155.331,346.583L156.34,346.578L156.844,346.578L157.853,346.573L158.358,346.573L159.872,346.565L160.376,346.565L161.89,346.558L162.394,346.558L164.917,346.545L165.421,346.545L167.439,346.535L171.475,346.515L171.98,346.51L173.998,346.5L174.502,346.495L176.016,346.488L176.521,346.483L177.53,346.478L178.034,346.473L178.539,346.47L179.043,346.465L179.548,346.462L180.052,346.458L180.557,346.455L181.061,346.45L181.565,346.448L182.575,346.438L183.079,346.435L185.097,346.415L185.602,346.413L189.638,346.373L190.142,346.365L191.656,346.35L192.16,346.342L192.665,346.337L193.169,346.33L193.674,346.325L194.179,346.318L194.683,346.313L195.188,346.305L195.692,346.3L197.206,346.277L197.71,346.273L199.728,346.243L200.232,346.233L201.746,346.21L202.25,346.2L203.26,346.185L204.269,346.165L204.773,346.158L209.314,346.068L209.818,346.055L210.323,346.045L210.827,346.033L211.332,346.023L211.837,346.01L214.863,345.935L215.368,345.92L215.873,345.908L216.377,345.893L216.881,345.88L219.909,345.79L220.413,345.775L220.918,345.758L221.422,345.743L223.945,345.655L224.449,345.635L224.954,345.618L225.458,345.598L225.963,345.58L227.476,345.52L227.981,345.498L228.485,345.478L228.99,345.455L229.494,345.435L230.504,345.39L231.008,345.365L231.512,345.342L232.017,345.318L232.522,345.295L234.035,345.22L234.54,345.193L235.044,345.168L236.558,345.085L237.062,345.055L237.567,345.027L238.071,344.998L239.08,344.938L239.585,344.905L240.089,344.875L241.603,344.777L242.107,344.743L242.612,344.71L243.116,344.675L243.621,344.638L244.125,344.603L245.639,344.49L246.143,344.45L246.648,344.413L247.153,344.373L247.657,344.33L248.161,344.29L249.171,344.205L249.675,344.16L250.685,344.07L251.188,344.025L252.702,343.883L253.208,343.833L253.71,343.783L254.215,343.733L255.73,343.575L256.233,343.52L256.738,343.465L258.253,343.293L258.755,343.233L259.765,343.113L260.775,342.988L261.28,342.923L261.783,342.858L262.793,342.723L263.298,342.652L263.803,342.585L264.305,342.513L265.315,342.368L266.325,342.217L266.828,342.14L268.342,341.9L268.848,341.818L269.35,341.735L269.855,341.65L270.865,341.475L271.37,341.385L271.873,341.295L272.883,341.11L273.388,341.015L273.893,340.918L274.395,340.82L274.9,340.72L275.91,340.515L276.415,340.41L276.918,340.303L277.423,340.195L278.433,339.975L278.938,339.863L279.443,339.748L279.945,339.63L280.955,339.39L281.965,339.145L282.467,339.018L282.973,338.89L283.478,338.76L284.488,338.495L284.99,338.358L285.495,338.22L286,338.08L286.505,337.938L287.01,337.793L287.513,337.648L288.523,337.348L289.027,337.195L289.533,337.038L290.035,336.88L290.54,336.72L291.55,336.395L292.055,336.228L292.558,336.058L293.568,335.712L294.073,335.535L294.578,335.355L295.083,335.173L295.585,334.99L296.09,334.803L296.595,334.613L297.1,334.42L297.605,334.225L298.108,334.027L298.613,333.828L299.118,333.625L299.623,333.42L300.128,333.212L300.63,333L301.135,332.788L301.64,332.57L302.145,332.35L302.65,332.128L303.152,331.902L303.658,331.675L304.668,331.21L305.173,330.973L305.675,330.733L306.18,330.49L307.19,329.995L307.695,329.743L308.198,329.488L308.703,329.23L309.712,328.705L310.217,328.438L310.72,328.168L311.73,327.618L312.235,327.337L313.245,326.768L313.748,326.478L314.253,326.185L314.758,325.89L315.263,325.592L315.768,325.29L316.27,324.985L317.28,324.365L317.785,324.05L318.29,323.733L318.793,323.41L319.298,323.087L319.803,322.76L320.308,322.43L320.813,322.095L321.315,321.758L321.82,321.418L322.325,321.075L322.83,320.73L323.335,320.38L323.837,320.027L324.342,319.673L324.848,319.315L325.353,318.953L325.858,318.587L326.36,318.22L326.865,317.85L327.37,317.478L328.38,316.723L328.883,316.34L329.388,315.955L329.893,315.568L330.398,315.178L330.902,314.785L331.408,314.39L331.91,313.99L332.415,313.59L332.92,313.188L333.93,312.373L334.433,311.96L334.938,311.548L335.443,311.133L335.948,310.715L336.453,310.295L336.955,309.873L337.46,309.448L338.47,308.592L338.975,308.16L339.478,307.728L340.488,306.858L340.993,306.42L341.498,305.98L342,305.538L342.505,305.095L343.515,304.205L344.02,303.758L344.523,303.308L345.533,302.408L346.038,301.955L346.543,301.5L347.045,301.048L347.55,300.592L349.57,298.763L350.073,298.305L352.092,296.465L352.595,296.005L354.11,294.625L354.615,294.163L355.118,293.703L355.623,293.245L356.633,292.325L357.138,291.868L357.64,291.41L358.65,290.495L359.66,289.585L360.163,289.13L361.173,288.225L362.183,287.325L362.685,286.875L363.19,286.428L363.695,285.983L364.2,285.54L364.705,285.095L365.21,284.655L365.712,284.215L366.217,283.777L367.228,282.908L367.733,282.475L368.235,282.045L368.74,281.618L369.75,280.768L370.255,280.345L370.758,279.928L371.263,279.51L371.768,279.095L372.273,278.683L372.777,278.273L373.28,277.865L373.785,277.458L374.29,277.055L374.795,276.655L375.3,276.258L375.803,275.865L376.308,275.473L376.813,275.083L377.318,274.695L377.823,274.313L378.325,273.933L378.83,273.553L379.335,273.178L380.345,272.438L380.848,272.07L381.353,271.708L381.858,271.348L382.363,270.99L383.373,270.285L383.875,269.938L384.38,269.592L384.885,269.25L385.39,268.913L385.895,268.578L386.398,268.245L386.902,267.915L387.408,267.59L387.913,267.268L388.418,266.948L388.92,266.633L389.425,266.318L389.93,266.008L390.94,265.398L391.443,265.098L391.948,264.8L392.958,264.215L393.462,263.928L393.965,263.645L394.47,263.363L394.975,263.085L395.48,262.81L395.985,262.538L396.488,262.27L396.993,262.005L397.498,261.743L398.003,261.483L398.508,261.228L399.01,260.973L399.515,260.723L400.525,260.233L401.535,259.753L402.038,259.517L403.048,259.058L404.058,258.608L404.56,258.387L405.065,258.17L405.57,257.955L406.58,257.535L407.083,257.33L407.587,257.125L408.092,256.925L408.598,256.728L409.103,256.533L409.605,256.337L410.11,256.147L411.12,255.778L411.625,255.595L412.128,255.415L412.633,255.238L413.138,255.063L413.643,254.89L414.148,254.72L414.65,254.553L415.155,254.387L415.66,254.225L416.165,254.065L416.67,253.908L417.173,253.753L418.183,253.448L419.193,253.153L419.698,253.008L420.2,252.868L420.705,252.725L421.21,252.588L422.22,252.318L422.723,252.188L423.733,251.928L424.743,251.678L425.245,251.558L425.75,251.435L426.76,251.2L427.265,251.088L427.768,250.973L428.777,250.753L429.283,250.645L429.788,250.54L430.29,250.435L431.3,250.23L431.805,250.133L432.31,250.033L432.813,249.937L433.318,249.842L433.823,249.749L434.328,249.657L434.833,249.567L435.337,249.478L435.84,249.391L436.345,249.304L436.85,249.22L437.355,249.137L437.86,249.055L438.363,248.974L438.868,248.895L439.373,248.817L439.878,248.74L440.383,248.665L440.885,248.591L441.39,248.518L441.895,248.446L442.4,248.375L442.905,248.306L443.408,248.238L443.913,248.171L444.418,248.104L444.923,248.04L445.428,247.976L445.93,247.913L446.435,247.851L446.94,247.79L447.445,247.731L447.95,247.672L448.453,247.614L448.958,247.558L449.462,247.502L449.967,247.447L450.473,247.393L450.975,247.34L451.48,247.288L451.985,247.236L452.49,247.186L452.995,247.137L453.5,247.088L454.003,247.04L454.508,246.993L455.013,246.946L455.518,246.901L456.022,246.856L456.525,246.813L457.03,246.769L457.535,246.727L458.04,246.685L458.545,246.644L459.048,246.604L459.553,246.564L460.058,246.525L460.563,246.487L461.068,246.449L461.57,246.412L462.075,246.376L462.58,246.34L463.085,246.305L463.59,246.271L464.092,246.237L464.598,246.204L465.103,246.171L465.608,246.139L466.113,246.107L466.615,246.076L467.12,246.045L467.625,246.015L468.13,245.986L468.635,245.957L469.138,245.928L469.643,245.9L470.147,245.873L470.652,245.846L471.158,245.819L471.663,245.793L472.165,245.768L472.67,245.742L473.175,245.718L473.68,245.693L474.185,245.669L474.688,245.646L475.193,245.623L476.203,245.578L476.708,245.556L477.21,245.535L477.715,245.513L478.22,245.493L478.725,245.472L479.23,245.452L479.733,245.433L480.743,245.394L481.753,245.357L482.255,245.339L482.76,245.321L483.265,245.304L484.275,245.27L484.777,245.254L485.788,245.222L486.293,245.206L486.798,245.19L487.3,245.175L487.805,245.161L488.815,245.131L489.32,245.118L489.825,245.104L490.328,245.09L490.833,245.077L491.842,245.051L492.348,245.038L492.85,245.026L493.355,245.014L493.86,245.002L494.365,244.99L494.87,244.978L495.373,244.967L496.383,244.945L497.393,244.923L497.895,244.913L498.4,244.903L499.41,244.883L499.915,244.873L500.418,244.863L501.428,244.845L501.933,244.836L502.438,244.827L502.94,244.819L503.95,244.802L504.455,244.793L505.465,244.777L505.967,244.769L506.473,244.762L506.978,244.754L507.988,244.74L508.49,244.732L509.5,244.718L510.51,244.705L511.013,244.698L511.518,244.692L512.528,244.679L513.033,244.673L513.535,244.667L514.04,244.661L515.05,244.65L515.555,244.644L516.058,244.639L516.563,244.634L517.068,244.628L517.573,244.623L518.078,244.618L518.58,244.613L519.085,244.608L520.6,244.594L521.102,244.589L522.112,244.58L523.628,244.567L524.13,244.563L525.645,244.551L526.15,244.547L526.653,244.544L527.663,244.536L528.673,244.529L529.175,244.526L529.68,244.522L530.185,244.519L531.195,244.512L531.698,244.509L533.718,244.497L534.22,244.494L536.24,244.483L536.742,244.48L537.753,244.475L538.258,244.473L538.763,244.47L539.265,244.468L539.77,244.465L540.78,244.461L541.285,244.458L541.79,244.456L542.293,244.454L542.798,244.452L543.303,244.45L543.808,244.448L544.313,244.446L544.815,244.444L545.32,244.442L545.825,244.44L546.835,244.436L547.338,244.434L549.358,244.427L549.86,244.425L550.365,244.423L550.87,244.422L551.375,244.42L551.88,244.419L552.383,244.417L554.403,244.411L554.905,244.41L555.41,244.409L555.915,244.407L556.925,244.405L557.428,244.403L559.448,244.398L559.953,244.397L560.455,244.396L560.96,244.395L561.465,244.393L561.97,244.392L562.475,244.391L562.978,244.39L564.997,244.386L565.5,244.385L567.52,244.381L568.023,244.38L568.528,244.379L569.033,244.379L569.538,244.378L570.043,244.377L570.545,244.376L572.06,244.374L572.565,244.373L573.068,244.372" style="fill:none;fill-rule:nonzero;stroke:rgb(221,68,17);stroke-width:2px;"/>
    <g transform="matrix(1,0,0,1,69.0588,36.691)">
        <text x="0px" y="0px" style="font-family:'ArialMT', 'Arial', sans-serif;font-size:14.75px;">susceptibles</text>
    </g>
    <g transform="matrix(1,0,0,1,497.895,238.246)">
        <text x="0px" y="0px" style="font-family:'ArialMT', 'Arial', sans-serif;font-size:14.75px;">recovereds</text>
    </g>
    <g transform="matrix(1,0,0,1,381.858,335.772)">
        <text x="0px" y="0px" style="font-family:'ArialMT', 'Arial', sans-serif;font-size:14.75px;">infectives</text>
    </g>
    <g transform="matrix(1,0,0,1,447.445,36.691)">
        <g>
            <text x="0px" y="0px" style="font-family:'ArialMT', 'Arial', sans-serif;font-size:14.75px;">duration = 2.0 <tspan x="94.449px " y="0px ">T</tspan></text>
            <text x="103.459px" y="2px" style="font-family:'ArialMT', 'Arial', sans-serif;font-size:10px;">SP</text>
        </g>
    </g>
</svg>
